<svg width="77" height="52" viewBox="0 0 77 52" fill="none" xmlns="http://www.w3.org/2000/svg">
<rect x="10.4998" y="3.25006" width="50.75" height="45.5" fill="white"/>
<path d="M77 19.9596C77 18.3838 76.719 16.5455 76.719 14.4444C76.438 12.3434 76.157 10.2424 75.8759 8.40403C75.3139 6.30302 74.4708 4.72728 72.7847 3.41415C71.3796 2.10102 69.4124 1.31312 67.4453 1.05049C60.9818 0.26261 51.4271 0 38.5 0C25.573 0 15.7372 0.26261 9.55473 1.05049C7.58758 1.31312 5.62044 2.10102 4.21533 3.41415C2.81022 4.72728 1.68611 6.30302 1.12407 8.40403C0.562027 10.2424 0.281039 12.0808 0.281039 14.4444C1.7148e-05 16.5455 0 18.3838 0 19.9596C0 21.5353 0 23.3737 0 26C0 28.6262 0 30.7273 0 32.0404C0 33.6161 0.281039 35.4545 0.281039 37.5556C0.562061 39.6566 0.843049 41.7575 1.12407 43.5959C1.68611 45.6969 2.5292 47.2727 4.21533 48.5858C5.62044 49.899 7.58758 50.6868 9.55473 50.9495C16.0182 51.7374 25.573 52 38.5 52C51.4271 52 61.2628 51.7374 67.4453 50.9495C69.4124 50.6868 71.3796 49.899 72.7847 48.5858C74.1898 47.2727 75.3139 45.6969 75.8759 43.5959C76.438 41.7575 76.719 39.9192 76.719 37.5556C77.0001 35.4545 77 33.6161 77 32.0404C77 30.4646 77 28.6262 77 26C77 23.3737 77 21.2727 77 19.9596ZM53.3942 28.101L31.1935 40.9697C30.9124 41.2323 30.3504 41.4949 29.7883 41.4949C29.2263 41.4949 28.9453 41.4949 28.3832 41.2323C27.5402 40.7071 26.9781 39.9192 26.9781 38.8687V12.8687C26.9781 11.8182 27.5402 11.0303 28.3832 10.505C29.2263 9.9798 30.3504 9.9798 31.1935 10.505L53.3942 23.3737C54.2372 23.899 54.7993 24.6869 54.7993 25.4747C54.7993 26.2626 54.2372 27.5757 53.3942 28.101Z" fill="#F40000"/>
</svg>
