<svg width="171" height="121" viewBox="0 0 171 121" fill="none" xmlns="http://www.w3.org/2000/svg">
<path d="M1.68357 20.0519C4.16901 19.1889 6.79384 18.8065 9.20959 17.7031C30.2468 7.58925 51.7952 8.67286 73.158 14.507C80.5138 16.513 87.8619 20.7386 93.7543 25.7846C110.758 39.9474 123.759 57.377 131.967 78.0454C134.344 83.9971 135.591 90.5429 135.877 97.3717C134.515 95.8168 132.997 94.1771 131.719 92.4666C127.956 87.5756 124.278 82.5291 120.19 77.8644C118.448 75.8995 115.815 74.458 113.252 73.2569C112.323 72.7481 110.163 73.3848 109.497 74.2333C108.831 75.0818 108.823 77.3015 109.512 77.881C120.461 89.1326 127.662 103.184 135.924 116.402C138.828 121.025 141.801 121.844 145.959 118.662C156.156 110.699 164.216 100.758 170.124 89.2341C170.294 88.923 169.93 88.1172 169.512 86.6752C158.502 85.0943 155.838 96.5753 147.004 102.049C146.942 99.5888 147.019 97.6094 146.771 95.8563C140.46 61.0632 121.582 34.1481 94.0947 13.0317C90.0296 9.79498 84.9038 7.39265 79.8322 5.62654C61.1794 -0.745518 42.0854 -1.9004 22.9838 3.20804C16.8283 4.89195 11.0754 8.41376 5.49287 11.6245C3.23197 12.8126 1.78412 15.4569 0.127183 17.3801C0.645978 18.2707 1.16477 19.1613 1.68357 20.0519Z" fill="#2E2E2E"/>
</svg>
