<svg width="166" height="38" viewBox="0 0 166 38" fill="none" xmlns="http://www.w3.org/2000/svg">
<circle cx="3" cy="3" r="3" fill="#231F20" fill-opacity="0.62"/>
<circle cx="23" cy="3" r="3" fill="#231F20" fill-opacity="0.62"/>
<circle cx="43" cy="3" r="3" fill="#231F20" fill-opacity="0.62"/>
<circle cx="63" cy="3" r="3" fill="#231F20" fill-opacity="0.62"/>
<circle cx="83" cy="3" r="3" fill="#231F20" fill-opacity="0.62"/>
<circle cx="103" cy="3" r="3" fill="#231F20" fill-opacity="0.62"/>
<circle cx="123" cy="3" r="3" fill="#231F20" fill-opacity="0.62"/>
<circle cx="143" cy="3" r="3" fill="#231F20" fill-opacity="0.62"/>
<circle cx="163" cy="3" r="3" fill="#231F20" fill-opacity="0.62"/>
<circle cx="3" cy="19" r="3" fill="#231F20" fill-opacity="0.62"/>
<circle cx="23" cy="19" r="3" fill="#231F20" fill-opacity="0.62"/>
<circle cx="43" cy="19" r="3" fill="#231F20" fill-opacity="0.62"/>
<circle cx="63" cy="19" r="3" fill="#231F20" fill-opacity="0.62"/>
<circle cx="83" cy="19" r="3" fill="#231F20" fill-opacity="0.62"/>
<circle cx="103" cy="19" r="3" fill="#231F20" fill-opacity="0.62"/>
<circle cx="123" cy="19" r="3" fill="#231F20" fill-opacity="0.62"/>
<circle cx="143" cy="19" r="3" fill="#231F20" fill-opacity="0.62"/>
<circle cx="163" cy="19" r="3" fill="#231F20" fill-opacity="0.62"/>
<circle cx="3" cy="35" r="3" fill="#231F20" fill-opacity="0.62"/>
<circle cx="23" cy="35" r="3" fill="#231F20" fill-opacity="0.62"/>
<circle cx="43" cy="35" r="3" fill="#231F20" fill-opacity="0.62"/>
<circle cx="63" cy="35" r="3" fill="#231F20" fill-opacity="0.62"/>
<circle cx="83" cy="35" r="3" fill="#231F20" fill-opacity="0.62"/>
<circle cx="103" cy="35" r="3" fill="#231F20" fill-opacity="0.62"/>
<circle cx="123" cy="35" r="3" fill="#231F20" fill-opacity="0.62"/>
<circle cx="143" cy="35" r="3" fill="#231F20" fill-opacity="0.62"/>
<circle cx="163" cy="35" r="3" fill="#231F20" fill-opacity="0.62"/>
</svg>
