<svg width="36" height="36" viewBox="0 0 36 36" fill="none" xmlns="http://www.w3.org/2000/svg">
<g clip-path="url(#clip0_2633_716)">
<path opacity="0.952" fill-rule="evenodd" clip-rule="evenodd" d="M6.22266 -0.0351562C13.5352 -0.0351562 20.8477 -0.0351562 28.1602 -0.0351562C28.3524 0.0495678 28.5399 0.155036 28.7227 0.28125C30.4687 2.02734 32.2149 3.77344 33.9609 5.51953C34.0918 5.68742 34.1855 5.87492 34.2422 6.08203C34.2891 15.6445 34.2891 25.207 34.2422 34.7695C34.0535 35.3683 33.6668 35.7668 33.082 35.9648C24.1289 35.9648 15.1758 35.9648 6.22266 35.9648C5.33476 35.6427 4.94804 35.0099 5.0625 34.0664C5.14231 33.8302 5.30637 33.7365 5.55469 33.7852C5.76429 33.7557 5.92836 33.826 6.04688 33.9961C6.03541 34.4758 6.25807 34.7688 6.71485 34.875C15.3399 34.9219 23.9648 34.9219 32.5898 34.875C32.8175 34.8587 32.9933 34.7532 33.1172 34.5586C33.1523 25.4649 33.1641 16.3711 33.1523 7.27734C31.4178 7.28909 29.6834 7.27734 27.9492 7.24219C27.4326 7.16548 27.1162 6.87252 27 6.36328C26.9648 4.58219 26.9531 2.80093 26.9648 1.01953C20.118 0.985029 13.2742 1.02019 6.4336 1.125C6.35156 1.20703 6.26954 1.28906 6.1875 1.37109C6.16407 7.5117 6.14062 13.6524 6.11719 19.793C5.97537 20.1743 5.70584 20.3033 5.3086 20.1797C5.22656 20.0976 5.14454 20.0156 5.0625 19.9336C5.02743 19.6533 5.01571 19.3721 5.02735 19.0898C4.55801 19.0782 4.08926 19.0898 3.6211 19.125C2.94103 19.3716 2.6715 19.852 2.8125 20.5664C2.97115 20.936 3.24068 21.1821 3.6211 21.3047C9.62107 21.3281 15.6211 21.3516 21.6211 21.375C22.3439 21.4884 22.8009 21.8986 22.9922 22.6055C23.0391 25.5117 23.0391 28.418 22.9922 31.3242C22.8232 31.9385 22.4364 32.3487 21.832 32.5547C15.6679 32.6016 9.50393 32.6016 3.33985 32.5547C2.46032 32.3314 1.90953 31.7806 1.6875 30.9023C1.64062 27.1524 1.64062 23.4023 1.6875 19.6523C1.96981 18.7607 2.56747 18.21 3.48047 18C3.99557 17.9648 4.51119 17.9532 5.02735 17.9648C5.01562 12.3633 5.02735 6.76167 5.0625 1.16016C5.27478 0.584693 5.6615 0.186255 6.22266 -0.0351562ZM28.0898 1.30078C29.7163 2.89207 31.3335 4.49755 32.9414 6.11719C31.3244 6.15234 29.7072 6.16406 28.0898 6.15234C28.0898 4.53516 28.0898 2.91797 28.0898 1.30078ZM18.7383 6.85547C18.8555 6.85547 18.9726 6.85547 19.0898 6.85547C19.1766 7.45073 19.1298 8.03672 18.9492 8.61328C18.5957 8.0493 18.5254 7.46339 18.7383 6.85547ZM19.2305 11.7773C19.8659 12.59 20.5221 13.3986 21.1992 14.2031C20.1293 14.3814 19.0747 14.5572 18.0352 14.7305C18.5127 13.7757 18.9112 12.7913 19.2305 11.7773ZM23.9414 15.293C24.4308 15.1988 24.923 15.234 25.418 15.3984C25.6762 15.4944 25.6996 15.635 25.4883 15.8203C25.2826 15.933 25.0717 15.933 24.8555 15.8203C24.5405 15.6566 24.2358 15.4808 23.9414 15.293ZM15.5039 16.7695C15.576 16.7974 15.5877 16.8443 15.5391 16.9102C15.148 17.5528 14.6324 18.0684 13.9922 18.457C13.7864 18.2704 13.7629 18.0595 13.9219 17.8242C14.3873 17.3751 14.9147 17.0235 15.5039 16.7695ZM2.77735 22.1836C2.97151 22.304 3.18245 22.386 3.41016 22.4297C9.43362 22.4531 15.457 22.4766 21.4805 22.5C21.652 22.5544 21.7809 22.6599 21.8672 22.8164C21.9141 25.582 21.9141 28.3477 21.8672 31.1133C21.8086 31.2656 21.7031 31.3711 21.5508 31.4297C15.4765 31.4994 9.4062 31.476 3.33985 31.3594C3.07174 31.21 2.89596 30.9874 2.8125 30.6914C2.77735 27.8556 2.76562 25.0196 2.77735 22.1836ZM7.20703 25.2773C7.56556 25.2545 7.91712 25.2896 8.26172 25.3828C8.79265 25.7496 8.81613 26.148 8.33203 26.5781C7.98947 26.6757 7.63791 26.7109 7.27735 26.6836C7.23839 26.2158 7.21491 25.747 7.20703 25.2773ZM11.9883 25.3477C13.2177 25.2056 13.8505 25.7565 13.8867 27C13.8154 28.2085 13.1825 28.7358 11.9883 28.582C11.9883 27.5039 11.9883 26.4258 11.9883 25.3477Z" fill="white"/>
<path opacity="0.935" fill-rule="evenodd" clip-rule="evenodd" d="M18.527 5.73045C19.7462 5.61341 20.3322 6.17591 20.2849 7.41795C20.2276 8.39536 20.0402 9.34458 19.7224 10.2656C20.5483 11.6311 21.5093 12.8967 22.6052 14.0625C23.6946 14.007 24.7728 14.1008 25.8395 14.3437C26.6507 14.6652 26.9202 15.2394 26.6481 16.0664C26.3881 16.6889 25.9193 17.017 25.2419 17.0508C24.6946 17.0011 24.1906 16.8253 23.7302 16.5234C23.1619 16.143 22.6346 15.7093 22.1481 15.2226C20.5006 15.3974 18.8834 15.7256 17.2966 16.207C16.7578 17.226 16.0898 18.1517 15.2927 18.9844C14.7911 19.4642 14.2051 19.6283 13.5349 19.4765C12.6697 18.9612 12.447 18.2463 12.8669 17.332C13.1629 16.9187 13.5262 16.5789 13.9567 16.3125C14.7916 15.8507 15.6589 15.464 16.5583 15.1523C17.3504 13.6385 18.0066 12.0682 18.527 10.4414C18.0567 9.65185 17.7169 8.8081 17.5075 7.91014C17.4606 7.51168 17.4606 7.11329 17.5075 6.71482C17.6774 6.2036 18.0172 5.87548 18.527 5.73045ZM18.738 6.85545C18.5251 7.46337 18.5954 8.04929 18.9489 8.61326C19.1295 8.0367 19.1763 7.45072 19.0895 6.85545C18.9723 6.85545 18.8552 6.85545 18.738 6.85545ZM19.2302 11.7773C18.9109 12.7913 18.5124 13.7757 18.0349 14.7304C19.0744 14.5572 20.129 14.3814 21.1989 14.2031C20.5218 13.3986 19.8656 12.59 19.2302 11.7773ZM23.9411 15.2929C24.2355 15.4808 24.5402 15.6566 24.8552 15.8203C25.0714 15.9329 25.2823 15.9329 25.488 15.8203C25.6993 15.635 25.6759 15.4944 25.4177 15.3984C24.9227 15.234 24.4305 15.1988 23.9411 15.2929ZM15.5036 16.7695C14.9144 17.0235 14.387 17.375 13.9216 17.8242C13.7626 18.0595 13.7861 18.2704 13.9919 18.457C14.6321 18.0684 15.1477 17.5528 15.5388 16.9101C15.5874 16.8443 15.5757 16.7974 15.5036 16.7695Z" fill="white"/>
<path opacity="0.927" fill-rule="evenodd" clip-rule="evenodd" d="M6.50391 24.1524C7.18763 24.1272 7.86734 24.1624 8.54297 24.2579C9.76683 24.867 10.0832 25.7928 9.49219 27.0353C8.88898 27.7325 8.12728 27.9903 7.20703 27.8087C7.23804 28.4258 7.20288 29.0351 7.10156 29.6368C6.77876 29.8384 6.47407 29.815 6.1875 29.5665C6.16407 29.4728 6.14062 29.379 6.11719 29.2853C6.07031 27.7384 6.07031 26.1915 6.11719 24.6446C6.18316 24.4268 6.31207 24.2628 6.50391 24.1524ZM7.20703 25.2774C7.21491 25.7471 7.23839 26.2159 7.27735 26.6837C7.63791 26.711 7.98947 26.6758 8.33203 26.5782C8.81613 26.1481 8.79265 25.7497 8.26172 25.3829C7.91712 25.2897 7.56556 25.2546 7.20703 25.2774Z" fill="white"/>
<path opacity="0.933" fill-rule="evenodd" clip-rule="evenodd" d="M16.5586 24.1523C17.1918 24.1407 17.8247 24.1523 18.457 24.1875C18.7941 24.22 18.9582 24.4076 18.9492 24.75C18.9535 24.909 18.9066 25.0496 18.8086 25.1719C18.2775 25.2725 17.7384 25.3077 17.1914 25.2773C17.1914 25.6523 17.1914 26.0273 17.1914 26.4023C17.6373 26.3907 18.0826 26.4023 18.5274 26.4375C18.7289 26.5354 18.8226 26.6995 18.8086 26.9297C18.8151 27.1275 18.7448 27.2916 18.5977 27.4219C18.1353 27.5187 17.6665 27.5538 17.1914 27.5273C17.2031 28.1137 17.1914 28.6996 17.1563 29.2851C17.0533 29.7178 16.7838 29.8701 16.3477 29.7422C16.2422 29.6836 16.1602 29.6015 16.1016 29.4961C16.0547 27.8086 16.0547 26.1211 16.1016 24.4336C16.2276 24.2839 16.3799 24.1902 16.5586 24.1523Z" fill="white"/>
<path opacity="0.934" fill-rule="evenodd" clip-rule="evenodd" d="M11.2149 24.2226C11.8247 24.211 12.4341 24.2226 13.043 24.2578C13.8726 24.431 14.4468 24.9115 14.7656 25.6992C15.1347 26.772 15.041 27.8032 14.4844 28.7929C14.1493 29.2356 13.7157 29.5286 13.1836 29.6719C12.5039 29.7188 11.8243 29.7188 11.1445 29.6719C11.0356 29.5865 10.9537 29.481 10.8985 29.3554C10.8516 27.7617 10.8516 26.168 10.8985 24.5742C10.9705 24.4204 11.076 24.3032 11.2149 24.2226ZM11.9883 25.3476C11.9883 26.4257 11.9883 27.5039 11.9883 28.582C13.1826 28.7358 13.8154 28.2084 13.8867 27C13.8505 25.7564 13.2177 25.2056 11.9883 25.3476Z" fill="white"/>
</g>
<defs>
<clipPath id="clip0_2633_716">
<rect width="36" height="36" fill="white"/>
</clipPath>
</defs>
</svg>
