<svg width="68" height="23" viewBox="0 0 68 23" fill="none" xmlns="http://www.w3.org/2000/svg">
<path d="M40.9468 6.46884C40.566 6.46884 40.2113 6.58436 39.9163 6.78185C39.6624 6.06268 38.9754 5.54472 38.1689 5.54472C37.788 5.54472 37.4333 5.66024 37.1384 5.85773C36.8845 5.13856 36.1974 4.6206 35.3909 4.6206C35.0549 4.6206 34.7375 4.71003 34.465 4.87026V1.84824C34.4612 0.827237 33.6323 0 32.6093 0C31.5862 0 30.7573 0.827237 30.7573 1.84824V12.6545L28.2109 11.3838C27.8263 11.1938 27.3969 11.0932 26.9675 11.0932C25.993 11.0894 25.2014 11.8831 25.2014 12.8632C25.2014 13.3364 25.3844 13.7798 25.7204 14.1115L31.7094 20.0884C33.0611 21.4411 34.8645 22.1826 36.7799 22.1826C40.0993 22.1826 42.7988 19.4885 42.7988 16.1758V8.31708C42.7988 7.29981 41.9662 6.46884 40.9468 6.46884ZM41.8728 16.1758C41.8728 18.978 39.5877 21.2585 36.7799 21.2585C35.1109 21.2585 33.5465 20.6101 32.3666 19.4326L26.3738 13.4556C26.2133 13.2991 26.1274 13.0867 26.1274 12.8557C26.1274 12.3899 26.5045 12.0136 26.9712 12.0136C27.2587 12.0136 27.5425 12.0806 27.8001 12.2073L31.0149 13.8134C31.1568 13.8842 31.3286 13.8767 31.4667 13.7947C31.6011 13.709 31.687 13.56 31.687 13.4035V1.85197C31.687 1.34147 32.1015 0.927847 32.613 0.927847C33.1245 0.927847 33.539 1.34147 33.539 1.85197V10.6311C33.539 10.8845 33.7481 11.0932 34.002 11.0932C34.2559 11.0932 34.465 10.8845 34.465 10.6311V6.46884C34.465 5.95834 34.8794 5.54472 35.3909 5.54472C35.9025 5.54472 36.3169 5.95834 36.3169 6.46884V10.6274C36.3169 10.8808 36.526 11.0894 36.7799 11.0894C37.0338 11.0894 37.2429 10.8808 37.2429 10.6274V7.39296C37.2429 6.88246 37.6574 6.46884 38.1689 6.46884C38.6804 6.46884 39.0949 6.88246 39.0949 7.39296V10.6274C39.0949 10.8808 39.304 11.0894 39.5579 11.0894C39.8118 11.0894 40.0209 10.8808 40.0209 10.6274V8.31708C40.0209 7.80658 40.4353 7.39296 40.9468 7.39296C41.4584 7.39296 41.8728 7.80658 41.8728 8.31708V16.1758Z" fill="white"/>
<path d="M58.7506 3.45492L66.3875 11.0916L58.7506 18.7282" stroke="white" stroke-linecap="round"/>
<path d="M9.24918 3.45492L1.6123 11.0916L9.24918 18.7282" stroke="white" stroke-linecap="round"/>
</svg>
