<svg width="66" height="66" viewBox="0 0 66 66" fill="none" xmlns="http://www.w3.org/2000/svg">
<g clip-path="url(#clip0_2633_707)">
<path opacity="0.969" fill-rule="evenodd" clip-rule="evenodd" d="M65.9355 30.2285C65.9355 32.0332 65.9355 33.8379 65.9355 35.6426C64.3758 46.9339 58.3601 54.8187 47.8887 59.2969C45.1877 60.3266 42.3947 60.9282 39.5098 61.1016C26.9199 61.1875 14.3301 61.1875 1.74023 61.1016C0.0272749 60.2879 -0.33796 59.0633 0.644531 57.4277C0.934739 57.1858 1.257 56.9924 1.61133 56.8477C8.61523 56.8047 15.6192 56.7617 22.623 56.7188C21.1806 55.8354 19.8485 54.8041 18.627 53.625C15.2325 53.5821 11.8379 53.539 8.44336 53.4961C7.04384 53.1685 6.42079 52.2877 6.57422 50.8535C6.70537 50.1817 7.07061 49.6876 7.66992 49.3711C9.98304 49.2258 12.3034 49.1183 14.6309 49.0488C9.14282 40.6784 8.13306 31.7839 11.6016 22.3652C12.1301 21.1578 12.7102 19.9762 13.3418 18.8203C9.43165 18.7774 5.52148 18.7343 1.61133 18.6914C0.834922 18.4937 0.276329 18.0425 -0.0644531 17.3379C-0.0644531 16.8223 -0.0644531 16.3066 -0.0644531 15.791C0.255084 15.1925 0.727739 14.7413 1.35352 14.4375C6.42382 14.3946 11.4941 14.3515 16.5645 14.3086C17.5097 13.3633 18.4551 12.418 19.4004 11.4727C20.4386 10.6493 21.5129 9.87583 22.623 9.15235C18.662 9.14942 14.709 9.06349 10.7637 8.89453C9.77203 8.28485 9.40681 7.40399 9.66797 6.25196C9.91393 5.44761 10.451 4.95347 11.2793 4.76953C20.6895 4.68359 30.0996 4.68359 39.5098 4.76953C49.0977 5.59647 56.5098 10.0008 61.7461 17.9824C64.0584 21.7616 65.455 25.8436 65.9355 30.2285ZM37.1895 9.08789C46.6414 9.31046 53.7957 13.4355 58.6523 21.4629C62.0764 28.1212 62.4631 34.9532 59.8125 41.959C56.4685 49.5132 50.7751 54.2612 42.7324 56.2031C34.1652 57.7845 26.796 55.5287 20.625 49.4356C13.9067 41.8154 12.3168 33.2217 15.8555 23.6543C20.148 14.6856 27.2594 9.83014 37.1895 9.08789ZM35.127 20.0449C35.2988 20.0449 35.4707 20.0449 35.6426 20.0449C35.6855 21.9375 35.6424 23.8281 35.5137 25.7168C33.891 26.2884 32.5375 27.2336 31.4531 28.5527C29.6889 27.9995 27.9487 27.398 26.2324 26.7481C28.241 23.2343 31.2059 21 35.127 20.0449ZM40.0254 20.0449C44.1699 20.8396 47.2636 23.074 49.3066 26.7481C47.55 27.4984 45.7453 28.0785 43.8926 28.4883C42.9223 27.1963 41.6762 26.2724 40.1543 25.7168C40.0255 23.8281 39.9825 21.9375 40.0254 20.0449ZM36.9316 29.8418C39.6147 29.6678 40.9252 30.9138 40.8633 33.5801C39.9657 35.9282 38.3544 36.5943 36.0293 35.5781C34.1386 33.8164 34.1386 32.0547 36.0293 30.293C36.3419 30.1366 36.6428 29.9863 36.9316 29.8418ZM24.8145 31.1309C26.5975 31.6105 28.3591 32.1692 30.0996 32.8066C30.2127 34.5428 30.7712 36.1112 31.7754 37.5117C30.6294 38.9789 29.5122 40.4614 28.4238 41.959C26.3071 39.8733 25.0824 37.3382 24.75 34.3535C24.6546 33.2748 24.676 32.2005 24.8145 31.1309ZM50.3379 31.1309C50.5083 31.1089 50.6587 31.1519 50.7891 31.2598C51.2319 35.4313 50.0288 39.0407 47.1797 42.0879C46.0821 40.5611 44.9863 39.0358 43.8926 37.5117C44.8317 36.0909 45.3473 34.5226 45.4395 32.8066C47.0862 32.2435 48.7191 31.6849 50.3379 31.1309ZM35.2559 40.1543C36.0869 40.3159 36.9248 40.4449 37.7695 40.541C38.6137 40.4235 39.4516 40.3161 40.2832 40.2188C41.4048 41.667 42.479 43.1494 43.5059 44.666C39.7707 46.4995 36.011 46.5424 32.2266 44.7949C32.0645 44.7498 32.0215 44.6638 32.0977 44.5371C33.1286 43.0559 34.1813 41.595 35.2559 40.1543Z" fill="white"/>
<path opacity="0.97" d="M35.1273 19.545H35.0673L35.009 19.5592C30.9541 20.5468 27.8753 22.8674 25.7987 26.5L25.5081 27.0083L26.0557 27.2157C27.7811 27.8691 29.5305 28.4737 31.3039 29.0299L31.6256 29.1308L31.8398 28.8703C32.8657 27.6223 34.1429 26.7299 35.6802 26.1884L35.9905 26.0791L36.0129 25.7509C36.1427 23.8471 36.1861 21.9414 36.1428 20.0336L36.1318 19.545H35.643H35.642H35.6409H35.6399H35.6389H35.6379H35.6369H35.6359H35.6349H35.6339H35.6329H35.6319H35.6309H35.6299H35.6289H35.6279H35.6269H35.6258H35.6248H35.6238H35.6228H35.6218H35.6208H35.6198H35.6188H35.6178H35.6168H35.6158H35.6148H35.6138H35.6128H35.6117H35.6107H35.6097H35.6087H35.6077H35.6067H35.6057H35.6047H35.6037H35.6027H35.6017H35.6007H35.5997H35.5987H35.5977H35.5966H35.5956H35.5946H35.5936H35.5926H35.5916H35.5906H35.5896H35.5886H35.5876H35.5866H35.5856H35.5846H35.5836H35.5825H35.5815H35.5805H35.5795H35.5785H35.5775H35.5765H35.5755H35.5745H35.5735H35.5725H35.5715H35.5705H35.5695H35.5684H35.5674H35.5664H35.5654H35.5644H35.5634H35.5624H35.5614H35.5604H35.5594H35.5584H35.5574H35.5564H35.5554H35.5544H35.5533H35.5523H35.5513H35.5503H35.5493H35.5483H35.5473H35.5463H35.5453H35.5443H35.5433H35.5423H35.5413H35.5403H35.5392H35.5382H35.5372H35.5362H35.5352H35.5342H35.5332H35.5322H35.5312H35.5302H35.5292H35.5282H35.5272H35.5262H35.5251H35.5241H35.5231H35.5221H35.5211H35.5201H35.5191H35.5181H35.5171H35.5161H35.5151H35.5141H35.5131H35.5121H35.511H35.51H35.509H35.508H35.507H35.506H35.505H35.504H35.503H35.502H35.501H35.5H35.499H35.498H35.4969H35.4959H35.4949H35.4939H35.4929H35.4919H35.4909H35.4899H35.4889H35.4879H35.4869H35.4859H35.4849H35.4839H35.4828H35.4818H35.4808H35.4798H35.4788H35.4778H35.4768H35.4758H35.4748H35.4738H35.4728H35.4718H35.4708H35.4698H35.4687H35.4677H35.4667H35.4657H35.4647H35.4637H35.4627H35.4617H35.4607H35.4597H35.4587H35.4577H35.4567H35.4557H35.4546H35.4536H35.4526H35.4516H35.4506H35.4496H35.4486H35.4476H35.4466H35.4456H35.4446H35.4436H35.4426H35.4416H35.4405H35.4395H35.4385H35.4375H35.4365H35.4355H35.4345H35.4335H35.4325H35.4315H35.4305H35.4295H35.4285H35.4275H35.4264H35.4254H35.4244H35.4234H35.4224H35.4214H35.4204H35.4194H35.4184H35.4174H35.4164H35.4154H35.4144H35.4134H35.4123H35.4113H35.4103H35.4093H35.4083H35.4073H35.4063H35.4053H35.4043H35.4033H35.4023H35.4013H35.4003H35.3993H35.3982H35.3972H35.3962H35.3952H35.3942H35.3932H35.3922H35.3912H35.3902H35.3892H35.3882H35.3872H35.3862H35.3851H35.3841H35.3831H35.3821H35.3811H35.3801H35.3791H35.3781H35.3771H35.3761H35.3751H35.3741H35.3731H35.3721H35.371H35.37H35.369H35.368H35.367H35.366H35.365H35.364H35.363H35.362H35.361H35.36H35.359H35.358H35.3569H35.3559H35.3549H35.3539H35.3529H35.3519H35.3509H35.3499H35.3489H35.3479H35.3469H35.3459H35.3449H35.3439H35.3428H35.3418H35.3408H35.3398H35.3388H35.3378H35.3368H35.3358H35.3348H35.3338H35.3328H35.3318H35.3308H35.3298H35.3287H35.3277H35.3267H35.3257H35.3247H35.3237H35.3227H35.3217H35.3207H35.3197H35.3187H35.3177H35.3167H35.3157H35.3146H35.3136H35.3126H35.3116H35.3106H35.3096H35.3086H35.3076H35.3066H35.3056H35.3046H35.3036H35.3026H35.3016H35.3005H35.2995H35.2985H35.2975H35.2965H35.2955H35.2945H35.2935H35.2925H35.2915H35.2905H35.2895H35.2885H35.2875H35.2864H35.2854H35.2844H35.2834H35.2824H35.2814H35.2804H35.2794H35.2784H35.2774H35.2764H35.2754H35.2744H35.2734H35.2723H35.2713H35.2703H35.2693H35.2683H35.2673H35.2663H35.2653H35.2643H35.2633H35.2623H35.2613H35.2603H35.2593H35.2582H35.2572H35.2562H35.2552H35.2542H35.2532H35.2522H35.2512H35.2502H35.2492H35.2482H35.2472H35.2462H35.2452H35.2441H35.2431H35.2421H35.2411H35.2401H35.2391H35.2381H35.2371H35.2361H35.2351H35.2341H35.2331H35.2321H35.2311H35.23H35.229H35.228H35.227H35.226H35.225H35.224H35.223H35.222H35.221H35.22H35.219H35.218H35.217H35.2159H35.2149H35.2139H35.2129H35.2119H35.2109H35.2099H35.2089H35.2079H35.2069H35.2059H35.2049H35.2039H35.2029H35.2018H35.2008H35.1998H35.1988H35.1978H35.1968H35.1958H35.1948H35.1938H35.1928H35.1918H35.1908H35.1898H35.1888H35.1878H35.1867H35.1857H35.1847H35.1837H35.1827H35.1817H35.1807H35.1797H35.1787H35.1777H35.1767H35.1757H35.1747H35.1737H35.1726H35.1716H35.1706H35.1696H35.1686H35.1676H35.1666H35.1656H35.1646H35.1636H35.1626H35.1616H35.1606H35.1596H35.1585H35.1575H35.1565H35.1555H35.1545H35.1535H35.1525H35.1515H35.1505H35.1495H35.1485H35.1475H35.1465H35.1455H35.1445H35.1434H35.1424H35.1414H35.1404H35.1394H35.1384H35.1374H35.1364H35.1354H35.1344H35.1334H35.1324H35.1314H35.1304H35.1293H35.1283H35.1273ZM40.1199 19.5539L39.5393 19.4426L39.5259 20.0336C39.4826 21.9414 39.526 23.8471 39.6558 25.7509L39.6779 26.0751L39.9832 26.1865C41.4144 26.709 42.5811 27.5742 43.4931 28.7886L43.6865 29.0461L44.0009 28.9765C45.8842 28.56 47.7185 27.9704 49.5034 27.2079L50.0136 26.99L49.744 26.5051C47.6287 22.7011 44.4091 20.3764 40.1199 19.5539ZM36.8997 29.3429L36.7988 29.3494L36.7083 29.3947L35.806 29.8458L35.7415 29.8781L35.6888 29.9272C34.6898 30.8582 34.1117 31.862 34.1117 32.9356C34.1117 34.0092 34.6898 35.013 35.6888 35.944L35.7513 36.0022L35.8294 36.0363C37.0595 36.5739 38.194 36.7075 39.173 36.3029C40.1532 35.8977 40.8548 35.0037 41.3307 33.7587L41.3615 33.678L41.3635 33.5917C41.3962 32.1852 41.0696 31.0422 40.2717 30.2835C39.4748 29.5258 38.3123 29.2513 36.8997 29.3429ZM24.9447 30.6481L24.3924 30.4995L24.319 31.0667C24.1759 32.1725 24.1538 33.2831 24.2523 34.3976L24.2522 34.3976L24.2535 34.4089C24.5985 37.5064 25.8738 40.148 28.0733 42.3152L28.4871 42.723L28.8287 42.253C29.9136 40.76 31.0274 39.2822 32.1698 37.8195L32.4002 37.5246L32.1821 37.2204C31.2329 35.8966 30.706 34.418 30.5989 32.7742L30.5778 32.4492L30.2719 32.3372C28.5177 31.6947 26.7421 31.1316 24.9447 30.6481ZM50.2745 30.635L50.2243 30.6415L50.1764 30.6579C48.5576 31.2119 46.9248 31.7704 45.278 32.3336L44.9587 32.4428L44.9406 32.7799C44.8531 34.4079 44.3654 35.8901 43.4758 37.2361L43.2859 37.5234L43.4867 37.8033C44.5806 39.3275 45.6764 40.8529 46.7741 42.3798L47.1295 42.8741L47.5453 42.4294C50.4942 39.2755 51.7447 35.522 51.2867 31.207L51.2652 31.0045L51.1083 30.8747C50.8693 30.6768 50.5797 30.5957 50.2745 30.635ZM35.3517 39.6635L35.0433 39.6036L34.8555 39.8554C33.7776 41.3005 32.7218 42.7658 31.6877 44.2515L31.6781 44.2652L31.6695 44.2795C31.5934 44.4062 31.4927 44.6539 31.626 44.9203C31.7313 45.1309 31.9221 45.2218 32.0484 45.2632C35.9589 47.0591 39.8661 47.0098 43.7266 45.1149L44.2425 44.8617L43.9203 44.3857C42.8874 42.8604 41.807 41.3693 40.6789 39.9127L40.506 39.6894L40.2255 39.7222C39.4109 39.8175 38.5904 39.9224 37.7639 40.0371C36.9534 39.9432 36.1493 39.8187 35.3517 39.6635ZM36.5754 15.9037C42.8684 15.7089 47.8828 18.0811 51.6687 23.0392C55.5011 29.0147 55.7934 35.1276 52.5485 41.4487C50.181 45.0409 47.3721 47.4633 44.1303 48.758C40.8878 50.0529 37.1664 50.2379 32.9432 49.2761C29.4646 48.0962 26.7374 46.3132 24.7369 43.9395C22.7356 41.565 21.4395 38.5731 20.8648 34.9416C20.6042 31.1926 21.2056 27.9216 22.6476 25.1102C24.0901 22.2979 26.3896 19.9146 29.573 17.9667C31.788 16.811 34.121 16.124 36.5754 15.9037Z" stroke="white"/>
</g>
<defs>
<clipPath id="clip0_2633_707">
<rect width="66" height="66" fill="white"/>
</clipPath>
</defs>
</svg>
