<svg width="66" height="66" viewBox="0 0 66 66" fill="none" xmlns="http://www.w3.org/2000/svg">
<g clip-path="url(#clip0_2633_651)">
<path opacity="0.923" fill-rule="evenodd" clip-rule="evenodd" d="M31.0021 1.869C42.7405 1.58304 52.0003 6.1807 58.7814 15.662C58.9215 16.9137 58.3845 17.3648 57.17 17.0155C50.4875 7.55213 41.3352 3.25525 29.713 4.12486C20.9598 5.29817 14.0419 9.46613 8.95911 16.6288C7.64688 17.1006 7.10978 16.6494 7.34778 15.2753C13.1902 7.25029 21.0749 2.78153 31.0021 1.869Z" fill="white"/>
<path opacity="0.947" fill-rule="evenodd" clip-rule="evenodd" d="M-0.0644531 43.8926C-0.0644531 39.4238 -0.0644531 34.9552 -0.0644531 30.4864C0.559106 29.8073 1.18215 29.8073 1.80469 30.4864C1.84765 34.6114 1.89063 38.7364 1.93359 42.8614C2.01001 43.7114 2.46118 44.2485 3.28711 44.4727C6.20899 44.5587 9.13085 44.5587 12.0527 44.4727C13.4137 43.894 13.6931 42.9702 12.8906 41.7012C12.7077 41.5775 12.5143 41.4701 12.3105 41.3789C10.1621 41.336 8.01368 41.293 5.86523 41.25C5.5 41.1427 5.26367 40.9062 5.15625 40.541C5.07031 38.7793 5.07031 37.0177 5.15625 35.2559C5.25738 35.0257 5.40777 34.8323 5.60742 34.6758C7.49805 34.6329 9.38867 34.5898 11.2793 34.5469C12.6296 34.1879 13.0378 33.35 12.5039 32.0332C12.305 31.7912 12.0687 31.5978 11.7949 31.4532C9.73929 31.2892 7.67679 31.2032 5.60742 31.1953C5.5 31.088 5.39257 30.9805 5.28516 30.8731C5.07481 29.0375 5.03184 27.1898 5.15625 25.3301C5.26367 24.9649 5.5 24.7285 5.86523 24.6211C8.01368 24.5782 10.1621 24.5351 12.3105 24.4922C13.3526 23.8995 13.5889 23.0616 13.0195 21.9785C12.7679 21.6699 12.4456 21.4766 12.0527 21.3985C8.9938 21.2734 5.94303 21.3165 2.90039 21.5274C2.53516 21.7207 2.25586 22.0001 2.0625 22.3653C1.94355 23.7897 1.81464 25.2076 1.67578 26.6192C1.00531 27.0176 0.425228 26.9318 -0.0644531 26.3614C-0.0644531 24.9005 -0.0644531 23.4394 -0.0644531 21.9785C0.468873 20.5218 1.50012 19.641 3.0293 19.336C6.12305 19.25 9.2168 19.25 12.3105 19.336C14.2575 19.7373 15.2888 20.9403 15.4043 22.9453C15.3401 24.798 14.4378 26.0012 12.6973 26.5547C10.8501 26.6192 9.00245 26.6407 7.1543 26.6192C7.1543 27.5215 7.1543 28.4239 7.1543 29.3262C9.01129 29.2683 10.8589 29.3328 12.6973 29.5196C14.0213 30.2426 14.7087 31.3597 14.7598 32.8711C14.7692 34.4501 14.0817 35.6103 12.6973 36.3516C10.8572 36.5359 9.00955 36.6004 7.1543 36.545C7.1543 37.4473 7.1543 38.3496 7.1543 39.252C9.00245 39.2305 10.8501 39.252 12.6973 39.3164C14.4745 39.8618 15.4198 41.0649 15.5332 42.9258C15.3184 44.9019 14.2443 46.1052 12.3105 46.5352C9.2168 46.6212 6.12305 46.6212 3.0293 46.5352C1.49694 46.2266 0.46568 45.3456 -0.0644531 43.8926Z" fill="white"/>
<path opacity="0.927" fill-rule="evenodd" clip-rule="evenodd" d="M30.486 19.2714C33.8261 18.938 36.9198 19.647 39.7672 21.3983C41.6224 22.8269 41.9878 24.5671 40.8629 26.619C39.9594 27.8762 38.7348 28.4133 37.1891 28.2303C36.1631 27.7605 35.1319 27.2879 34.0954 26.8124C30.5011 26.1187 27.9445 27.4293 26.4254 30.744C25.5295 33.8443 26.3674 36.358 28.9391 38.285C30.3224 39.1786 31.8263 39.4794 33.4508 39.1874C34.0596 39.0332 34.6183 38.7754 35.1266 38.4139C36.7597 36.2564 38.6933 35.9128 40.9274 37.3827C42.46 39.01 42.6104 40.7502 41.3786 42.6034C37.6849 46.3898 33.2805 47.5285 28.1657 46.0194C23.1123 44.1888 20.0399 40.6439 18.9489 35.3846C18.1414 29.2921 20.2684 24.5441 25.3297 21.1405C26.9483 20.1932 28.667 19.5702 30.486 19.2714ZM30.7438 21.3339C33.8852 20.9771 36.6996 21.7505 39.1872 23.6542C39.7262 24.9822 39.2966 25.8416 37.8981 26.2323C36.9206 25.7333 35.9109 25.2821 34.8688 24.8788C30.3582 23.8154 26.9851 25.2979 24.7497 29.3261C23.1559 33.5867 24.1227 37.1316 27.65 39.9608C29.6741 41.2722 31.8655 41.6589 34.2243 41.121C35.6244 40.7092 36.7846 39.9358 37.7047 38.8007C38.5885 38.3717 39.3404 38.565 39.9606 39.3807C40.2374 40.003 40.1944 40.6046 39.8317 41.1854C36.9693 44.1843 33.5104 45.194 29.4547 44.2147C23.4951 42.1618 20.6377 37.9723 20.8825 31.6464C21.8756 25.9915 25.1627 22.5541 30.7438 21.3339Z" fill="white"/>
<path opacity="0.934" fill-rule="evenodd" clip-rule="evenodd" d="M65.9351 28.4238C65.9351 29.8418 65.9351 31.2598 65.9351 32.6777C65.4419 36.1349 63.9379 39.0782 61.4233 41.5078C60.1616 41.793 59.6674 41.2989 59.9409 40.0254C60.5362 39.3714 61.1163 38.7054 61.6812 38.0273C58.928 38.561 56.1779 39.1626 53.4312 39.832C52.7006 41.25 51.9703 42.668 51.2398 44.0859C51.8856 44.0217 52.5301 43.8928 53.1733 43.6992C54.3361 43.2893 55.4962 42.8811 56.6538 42.4746C57.2813 42.5217 57.625 42.8653 57.6851 43.5059C57.6336 43.7246 57.5692 43.9394 57.4917 44.1504C55.0132 45.4525 52.3706 46.2259 49.564 46.4707C49.2061 46.4314 48.8839 46.3025 48.5972 46.084C45.6281 41.1171 44.8546 35.8319 46.2769 30.2285C47.6501 26.6207 50.0349 23.8921 53.4312 22.043C56.1189 20.6171 58.9762 19.7363 62.0034 19.4004C62.2468 19.4385 62.4832 19.503 62.7124 19.5938C64.4405 22.3081 65.5147 25.2514 65.9351 28.4238ZM59.8765 21.8496C59.9894 21.8327 60.0754 21.8756 60.1343 21.9785C58.9627 24.1927 57.824 26.4272 56.7183 28.6816C55.9905 27.0759 55.2815 25.4645 54.5913 23.8477C56.2855 22.9613 58.0473 22.2952 59.8765 21.8496ZM58.7163 29.584C59.7641 27.3165 60.8813 25.0822 62.0679 22.8809C62.9377 24.6746 63.4963 26.5653 63.7437 28.5527C62.0743 28.9295 60.3985 29.2733 58.7163 29.584ZM52.5288 25.0723C52.8575 25.0801 53.0509 25.252 53.1089 25.5879C53.8912 27.4408 54.6862 29.2885 55.4937 31.1309C54.6457 32.8698 53.7649 34.5885 52.8511 36.2871C51.6792 33.7281 50.5406 31.1499 49.4351 28.5527C50.2852 27.23 51.3165 26.0699 52.5288 25.0723ZM63.7437 30.6152C63.9641 32.3018 63.7063 33.9346 62.9702 35.5137C60.2391 36.2181 57.4891 36.7982 54.7202 37.2539C55.596 35.5667 56.4554 33.8695 57.2983 32.1621C59.4617 31.6426 61.61 31.127 63.7437 30.6152ZM48.146 31.1309C49.3723 33.6238 50.4894 36.1805 51.4976 38.8008C50.8965 40.2392 50.209 41.6358 49.4351 42.9902C47.606 39.1866 47.1764 35.2336 48.146 31.1309Z" fill="white"/>
<path opacity="0.923" fill-rule="evenodd" clip-rule="evenodd" d="M57.9434 47.8886C59.1394 47.7437 59.5905 48.2593 59.2969 49.4355C52.1868 59.8971 42.2825 64.6882 29.584 63.8085C20.5834 62.6723 13.3431 58.5259 7.86328 51.3691C7.56669 50.9452 7.33036 50.494 7.1543 50.0155C7.37457 49.0677 7.93316 48.767 8.83008 49.1132C16.0722 58.9494 25.7832 63.0744 37.9629 61.4882C44.6516 60.218 50.259 57.0597 54.7852 52.0136C55.8733 50.648 56.9259 49.273 57.9434 47.8886Z" fill="white"/>
</g>
<defs>
<clipPath id="clip0_2633_651">
<rect width="66" height="66" fill="white"/>
</clipPath>
</defs>
</svg>
