<svg width="66" height="66" viewBox="0 0 66 66" fill="none" xmlns="http://www.w3.org/2000/svg">
<g clip-path="url(#clip0_2633_666)">
<path opacity="0.928" fill-rule="evenodd" clip-rule="evenodd" d="M31.0019 -0.0644531C32.291 -0.0644531 33.5801 -0.0644531 34.8691 -0.0644531C37.3456 0.339206 39.6228 1.26304 41.7012 2.70703C45.6757 6.50977 49.5644 10.3984 53.3672 14.373C54.8594 16.991 54.7949 19.5691 53.1738 22.1074C54.9804 23.9354 56.7637 25.7832 58.5234 27.6504C60.4859 30.7168 60.7008 33.8964 59.168 37.1895C58.8131 37.7706 58.4264 38.3291 58.0078 38.8652C53.8613 43.0118 49.7149 47.1582 45.5684 51.3047C44.3306 51.7003 43.7936 51.2491 43.957 49.9512C48.082 45.8262 52.207 41.7012 56.332 37.5762C58.1421 35.4249 58.5718 33.0187 57.6211 30.3574C57.396 29.8641 57.1382 29.3915 56.8477 28.9395C55.1971 27.1599 53.4998 25.4197 51.7559 23.7188C51.2433 23.9098 50.7277 24.1461 50.209 24.4277C50.0774 24.4924 50.0558 24.5783 50.1445 24.6855C52.1292 26.584 54.0198 28.5606 55.8164 30.6152C56.5195 32.4408 56.3906 34.2024 55.4297 35.9004C48.9628 42.3672 42.4961 48.8339 36.0293 55.3008C33.9668 56.5898 31.9043 56.5898 29.8418 55.3008C23.375 48.8339 16.9082 42.3672 10.4414 35.9004C9.32421 33.9239 9.32421 31.9472 10.4414 29.9707C12.2031 28.2089 13.9648 26.4473 15.7266 24.6855C15.8152 24.5783 15.7937 24.4924 15.6621 24.4277C15.1434 24.1461 14.6278 23.9098 14.1152 23.7188C12.5898 25.2441 11.0644 26.7696 9.53906 28.2949C7.72902 30.4462 7.29934 32.8524 8.25 35.5137C8.57766 36.2697 9.00735 36.9573 9.53906 37.5762C15.791 43.8281 22.043 50.0801 28.2949 56.332C30.8706 58.3517 33.6206 58.6095 36.5449 57.1055C38.2987 55.6098 39.9745 54.02 41.5723 52.3359C42.1418 52.0669 42.6359 52.1743 43.0547 52.6582C43.16 53.1047 43.1169 53.5345 42.9258 53.9473C41.328 55.6313 39.6522 57.2211 37.8984 58.7168C37.8555 60.9082 37.8125 63.0996 37.7695 65.291C37.641 65.526 37.4906 65.7409 37.3184 65.9355C34.3964 65.9355 31.4746 65.9355 28.5527 65.9355C28.4292 65.7471 28.2789 65.5753 28.1016 65.4199C28.0586 63.1856 28.0156 60.9511 27.9727 58.7168C27.6504 58.4805 27.3281 58.2441 27.0059 58.0078C20.625 51.627 14.2441 45.2461 7.86328 38.8652C4.85547 34.9121 4.85547 30.959 7.86328 27.0059C9.49791 25.3927 11.1092 23.7599 12.6973 22.1074C11.0641 19.5686 10.9996 16.9905 12.5039 14.373C13.8965 12.8514 15.336 11.369 16.8223 9.92578C17.9909 9.62021 18.485 10.0714 18.3047 11.2793C17.0625 12.6505 15.7735 13.9826 14.4375 15.2754C12.9553 17.7479 13.2776 19.9609 15.4043 21.9141C17.4097 23.2261 19.3862 23.1831 21.334 21.7852C22.9275 20.1486 24.5604 18.5586 26.2324 17.0156C30.3371 14.3799 34.548 14.2079 38.8652 16.5C39.2949 16.8007 39.7246 17.1016 40.1543 17.4023C41.6152 18.8632 43.0762 20.3243 44.5371 21.7852C47.0711 23.4546 49.3701 23.1753 51.4336 20.9473C52.7107 19.0554 52.7107 17.1648 51.4336 15.2754C47.9316 11.7734 44.4297 8.27149 40.9277 4.76953C37.3145 2.02585 33.3184 1.29538 28.9394 2.57812C27.4708 3.07578 26.1388 3.80624 24.9434 4.76953C23.5683 6.14454 22.1934 7.51953 20.8184 8.89453C19.4768 9.35489 18.9398 8.90372 19.207 7.54102C20.8221 5.88291 22.4763 4.27158 24.1699 2.70703C26.2483 1.26304 28.5255 0.339206 31.0019 -0.0644531ZM31.6465 16.9512C34.3428 16.7117 36.7491 17.4206 38.8652 19.0781C40.4158 20.6718 42.0056 22.2187 43.6348 23.7188C44.817 24.4566 46.106 24.8863 47.5019 25.0078C49.586 27.0918 51.6699 29.1757 53.7539 31.2598C54.3555 32.377 54.3555 33.4941 53.7539 34.6113C47.373 40.9922 40.9922 47.373 34.6113 53.7539C33.4941 54.3555 32.377 54.3555 31.2598 53.7539C27.0918 49.586 22.9238 45.4179 18.7559 41.25C20.5821 40.1118 20.9902 38.5864 19.9805 36.6738C18.6303 35.3061 17.1479 35.1557 15.5332 36.2227C15.2461 36.5532 15.0097 36.9184 14.8242 37.3184C13.9219 36.416 13.0195 35.5137 12.1172 34.6113C11.5156 33.4941 11.5156 32.377 12.1172 31.2598C14.2012 29.1757 16.2851 27.0918 18.3691 25.0078C20.0028 24.879 21.4637 24.3204 22.7519 23.332C24.3026 21.7384 25.8924 20.1915 27.5215 18.6914C28.7849 17.8199 30.1599 17.2398 31.6465 16.9512ZM32.6777 30.2285C33.5237 30.2797 33.9534 30.7309 33.9668 31.582C33.9882 32.3125 33.6444 32.7637 32.9355 32.9355C32.2267 32.7637 31.8829 32.3125 31.9043 31.582C31.8816 30.9603 32.1394 30.5091 32.6777 30.2285ZM17.209 37.5762C17.8914 37.4632 18.3211 37.7426 18.498 38.4141C18.4336 38.9941 18.1113 39.3164 17.5312 39.3809C16.8375 39.2044 16.5797 38.7746 16.7578 38.0918C16.8468 37.8533 16.9971 37.6814 17.209 37.5762ZM30.0996 59.748C31.948 60.2602 33.7956 60.2602 35.6426 59.748C35.7714 61.1634 35.8143 62.5814 35.7715 64.002C33.8808 64.002 31.9903 64.002 30.0996 64.002C30.0996 62.584 30.0996 61.166 30.0996 59.748Z" fill="white"/>
<path opacity="0.927" fill-rule="evenodd" clip-rule="evenodd" d="M60.7796 1.22457C63.4627 1.0501 64.6873 2.29619 64.4534 4.96285C63.6346 6.86523 62.2381 7.48829 60.264 6.83199C59.0293 6.14609 58.4923 5.09335 58.6527 3.67379C58.9334 2.47024 59.6424 1.65384 60.7796 1.22457ZM61.1663 3.28707C62.2809 3.1983 62.646 3.67096 62.262 4.70504C61.4979 5.23849 60.9607 5.04513 60.6507 4.12496C60.7474 3.79351 60.9192 3.51423 61.1663 3.28707Z" fill="white"/>
<path opacity="0.857" fill-rule="evenodd" clip-rule="evenodd" d="M30.0995 4.06055C31.0415 4.07843 31.4497 4.55109 31.3241 5.47852C30.9966 6.06742 30.5023 6.26078 29.8417 6.05859C29.3632 5.72319 29.2129 5.27202 29.3905 4.70508C29.5332 4.36825 29.7695 4.1534 30.0995 4.06055Z" fill="white"/>
<path opacity="0.861" fill-rule="evenodd" clip-rule="evenodd" d="M9.34528 7.92773C10.3374 7.99639 10.7027 8.51201 10.441 9.47461C10.3765 9.71093 10.2261 9.86133 9.98981 9.92578C8.7604 10.115 8.30923 9.62087 8.63629 8.44336C8.82962 8.18958 9.06595 8.01771 9.34528 7.92773Z" fill="white"/>
<path opacity="0.857" fill-rule="evenodd" clip-rule="evenodd" d="M37.8339 9.2168C38.7759 9.23468 39.184 9.70734 39.0585 10.6348C38.7309 11.2237 38.2367 11.417 37.5761 11.2148C37.0976 10.8794 36.9473 10.4283 37.1249 9.86133C37.2676 9.5245 37.5039 9.30965 37.8339 9.2168Z" fill="white"/>
<path opacity="0.857" fill-rule="evenodd" clip-rule="evenodd" d="M26.2323 13.084C27.1744 13.1019 27.5825 13.5745 27.4569 14.502C27.1294 15.0909 26.6351 15.2843 25.9745 15.082C25.496 14.7466 25.3457 14.2954 25.5233 13.7285C25.666 13.3917 25.9023 13.1768 26.2323 13.084Z" fill="white"/>
<path opacity="0.857" fill-rule="evenodd" clip-rule="evenodd" d="M17.2089 16.9512C18.1509 16.9691 18.559 17.4417 18.4335 18.3691C18.1059 18.9581 17.6117 19.1515 16.9511 18.9492C16.4726 18.6138 16.3223 18.1626 16.4999 17.5957C16.6426 17.2589 16.8789 17.044 17.2089 16.9512Z" fill="white"/>
<path opacity="0.857" fill-rule="evenodd" clip-rule="evenodd" d="M46.5995 18.2402C47.5415 18.2582 47.9497 18.7307 47.8241 19.6582C47.4966 20.2472 47.0023 20.4405 46.3417 20.2383C45.8632 19.9029 45.7129 19.4517 45.8905 18.8848C46.0332 18.5479 46.2695 18.333 46.5995 18.2402Z" fill="white"/>
<path opacity="0.93" fill-rule="evenodd" clip-rule="evenodd" d="M4.06066 20.3027C6.46498 20.4938 7.51771 21.7828 7.21886 24.1699C6.56839 25.8599 5.34378 26.5259 3.54503 26.168C1.81547 25.481 1.14946 24.2135 1.54699 22.3652C2.0271 21.2172 2.86499 20.5297 4.06066 20.3027ZM4.18957 22.3652C5.28482 22.6211 5.49967 23.2012 4.8341 24.1055C3.82434 24.2988 3.41613 23.8906 3.60949 22.8809C3.78954 22.6785 3.9829 22.5065 4.18957 22.3652Z" fill="white"/>
<path opacity="0.865" fill-rule="evenodd" clip-rule="evenodd" d="M57.5563 20.3027C58.4181 20.394 58.7834 20.8667 58.652 21.7207C58.3382 22.3297 57.8439 22.523 57.1696 22.3008C56.6214 21.8599 56.5139 21.3228 56.8474 20.6895C57.0892 20.5465 57.3255 20.4176 57.5563 20.3027Z" fill="white"/>
<path opacity="0.894" fill-rule="evenodd" clip-rule="evenodd" d="M22.3653 27.6502C22.9336 27.5365 23.3848 27.7084 23.7188 28.1658C23.8048 29.0252 23.8048 29.8845 23.7188 30.7439C22.9631 31.4779 22.3186 31.3919 21.7852 30.4861C21.6992 29.7986 21.6992 29.111 21.7852 28.4236C21.8624 28.0686 22.0558 27.8108 22.3653 27.6502Z" fill="white"/>
<path opacity="0.894" fill-rule="evenodd" clip-rule="evenodd" d="M42.6035 27.6504C43.3373 27.4905 43.8315 27.7483 44.086 28.4238C44.172 29.1113 44.172 29.7989 44.086 30.4863C43.5526 31.3921 42.908 31.4781 42.1524 30.7441C42.0664 29.8847 42.0664 29.0254 42.1524 28.166C42.3298 28.0107 42.4801 27.8388 42.6035 27.6504Z" fill="white"/>
<path opacity="0.928" fill-rule="evenodd" clip-rule="evenodd" d="M32.4202 28.166C35.1555 28.3455 36.3371 29.8063 35.9651 32.5488C35.183 34.7147 33.7006 35.4237 31.5178 34.6758C29.7673 33.3667 29.3591 31.7125 30.2932 29.7129C30.7949 28.8945 31.5039 28.3788 32.4202 28.166ZM32.678 30.2285C32.1397 30.5091 31.8819 30.9603 31.9046 31.582C31.8832 32.3125 32.227 32.7637 32.9358 32.9355C33.6447 32.7637 33.9885 32.3125 33.9671 31.582C33.9537 30.7309 33.524 30.2797 32.678 30.2285Z" fill="white"/>
<path opacity="0.869" fill-rule="evenodd" clip-rule="evenodd" d="M60.6504 48.9197C61.7728 48.86 62.2239 49.3756 62.0039 50.4666C61.08 51.276 60.414 51.1041 60.0059 49.9509C60.0934 49.5161 60.3083 49.1723 60.6504 48.9197Z" fill="white"/>
<path opacity="0.865" fill-rule="evenodd" clip-rule="evenodd" d="M17.0796 55.752C18.0464 55.837 18.4116 56.3527 18.1753 57.2988C17.7944 57.7857 17.3003 57.936 16.6929 57.75C15.9389 56.9009 16.0678 56.2348 17.0796 55.752Z" fill="white"/>
<path opacity="0.869" fill-rule="evenodd" clip-rule="evenodd" d="M47.7598 56.6541C48.8822 56.5944 49.3333 57.11 49.1133 58.2009C48.1894 59.0103 47.5234 58.8385 47.1152 57.6853C47.2028 57.2505 47.4176 56.9067 47.7598 56.6541Z" fill="white"/>
<path opacity="0.869" fill-rule="evenodd" clip-rule="evenodd" d="M65.9352 58.0725C65.9352 58.4163 65.9352 58.76 65.9352 59.1038C65.3117 59.7828 64.6886 59.7828 64.0661 59.1038C63.7709 57.9063 64.2221 57.4122 65.4196 57.6213C65.6581 57.7103 65.83 57.8606 65.9352 58.0725Z" fill="white"/>
<path opacity="0.878" fill-rule="evenodd" clip-rule="evenodd" d="M-0.0644531 62.3264C-0.0644531 61.9826 -0.0644531 61.639 -0.0644531 61.2952C0.425228 60.7248 1.00531 60.6389 1.67578 61.0373C2.13233 61.9701 1.87452 62.5717 0.902344 62.842C0.514587 62.7784 0.192322 62.6065 -0.0644531 62.3264Z" fill="white"/>
</g>
<defs>
<clipPath id="clip0_2633_666">
<rect width="66" height="66" fill="white"/>
</clipPath>
</defs>
</svg>
