<svg width="50" height="50" viewBox="0 0 50 50" fill="none" xmlns="http://www.w3.org/2000/svg">
<path d="M25 50C15.5074 50 7.8125 42.3051 7.8125 32.8125V17.1875C7.8125 7.69492 15.5074 0 25 0C34.4926 0 42.1875 7.69492 42.1875 17.1875V32.8125C42.1875 42.3051 34.4926 50 25 50ZM39.0625 17.1875C39.0625 9.43281 32.7547 3.125 25 3.125C17.2453 3.125 10.9375 9.43281 10.9375 17.1875V32.8125C10.9375 40.5672 17.2453 46.875 25 46.875C32.7547 46.875 39.0625 40.5672 39.0625 32.8125V17.1875ZM25 42.1875C22.4105 42.1875 20.3125 40.0895 20.3125 37.5V31.25C20.3125 28.6605 22.4105 26.5625 25 26.5625C27.5895 26.5625 29.6875 28.6605 29.6875 31.25V37.5C29.6875 40.0895 27.5895 42.1875 25 42.1875ZM26.5625 31.25C26.5625 30.3879 25.8621 29.6875 25 29.6875C24.1379 29.6875 23.4375 30.3879 23.4375 31.25V37.5C23.4375 38.3621 24.1379 39.0625 25 39.0625C25.8621 39.0625 26.5625 38.3621 26.5625 37.5V31.25Z" fill="#231F20"/>
</svg>
